<svg xmlns="http://www.w3.org/2000/svg" viewBox="0 0 457.31 140.18"><defs><style>.cls-1{fill:#fff;}.cls-2{fill:#f59e00;}</style></defs><g id="Capa_2" data-name="Capa 2"><g id="Capa_1-2" data-name="Capa 1"><path class="cls-1" d="M143.31,56.16l-.13,24.51c0,5.83,1.07,8.34,7.79,8.68,5,.26,6.25-2.85,6.25-8.68l-1.14-24.51h14.68l.38,28.08c0,14.43-12.64,18.9-20.94,18.9-13.81,0-20.42-7-21.19-18.64l-.25-28.34Z"/><path class="cls-1" d="M195.91,42.69a9.15,9.15,0,1,1-9.15-9.15A9.19,9.19,0,0,1,195.91,42.69Zm-1,59.48H178.6v-46h16.32Z"/><path class="cls-1" d="M226.31,102.17H210V69.62h-9.36V56.16H210V37h16.32V56.16h9.24V69.62h-9.24Z"/><path class="cls-1" d="M285.9,102.17H271.1V97.9h0c-1.92,3.07-7,5.24-12.39,5.24-13.63,0-21.51-10.83-21.51-24s7.61-24.41,21.25-24.41a17.22,17.22,0,0,1,12.77,6.1l.13-4.65h14ZM252.46,78.85c0,5.83,3.38,10.51,10,10.51s10-4.36,10-10.19c0-5.65-3.7-10.36-10.34-10.36S252.46,73.2,252.46,78.85Z"/><path class="cls-1" d="M310.16,59.22h0c5.54-3.66,5.36-3.46,8.72-4.53H319a17.45,17.45,0,0,1,11.46,3.66l2,1.51-9.19,10.6c-4.63-2.09-7.86-2.55-9.72-1-2.49,2-2.74,7.23-2.6,13.35v18.57H294.54v-46h15.75Z"/><path class="cls-2" d="M359.05,86.46h26.68v14.89H340V33.72h19.19Z"/><path class="cls-2" d="M410,89.6l-4.67,11.75H386.63l26-67.63h19.19l25.48,67.63H438.56l-4.4-11.75Zm12.29-35h-.18l-7.27,21.53h14.62Z"/><path class="cls-1" d="M122.25,64.33c-.18,9.42-.4,18.08-6.13,26.13-6.34,8.82-15.85,12.68-26.64,12.68-20.29,0-35.15-13.15-35.15-33.45,0-21,14.94-35.4,35.75-35.4,13.28,0,20,4.38,26.17,11l-9.71,10.85c-2.31-6.16-10.46-7.4-17.23-7.4-11,0-19.79,10.1-19.79,19.95,0,10,9,20.64,20,20.64,7.28,0,15.81-4.72,16.5-12.17L87.53,77.1l-.14-13.28Z"/><path class="cls-1" d="M59.33,116.19h5v23.3h-5Z"/><path class="cls-1" d="M82.89,116.19H87.8v23.3H82.91L72.26,124.4v15.09h-5v-23.3h5l10.69,15Z"/><path class="cls-1" d="M105.2,118.64l-3.12,3.43a8.63,8.63,0,0,0-3.55-1.46,1.92,1.92,0,0,0-1.44.63,2.1,2.1,0,0,0-.6,1.5q0,1.73,3.12,3a21.08,21.08,0,0,1,3.46,1.77,6.25,6.25,0,0,1,2,2.19,6,6,0,0,1,.79,3,6.88,6.88,0,0,1-2.42,5.22,8.19,8.19,0,0,1-5.72,2.22c-2.42,0-4.8-1.14-7.16-3.41l3.3-3.85q2.22,2.3,4.16,2.29a2.51,2.51,0,0,0,1.74-.81,2.36,2.36,0,0,0,.83-1.69q0-1.81-3.85-3.21a12.94,12.94,0,0,1-3.12-1.5,5.37,5.37,0,0,1-1.56-2,6.42,6.42,0,0,1-.63-2.75,6.66,6.66,0,0,1,2-5,7.37,7.37,0,0,1,5.28-1.93A9.21,9.21,0,0,1,105.2,118.64Z"/><path class="cls-1" d="M109.47,116.19h15.67v5h-5.35v18.35h-5V121.14h-5.3Z"/><path class="cls-1" d="M130.55,116.19h7.67a7.91,7.91,0,0,1,5.53,1.84,6.39,6.39,0,0,1,2,5,8.46,8.46,0,0,1-.94,3.72,6.44,6.44,0,0,1-3.43,3l6.51,9.72h-5.77l-6-9h-.56v9h-5Zm5,4.15v6.07h1.09q3.93,0,3.93-3.21a2.49,2.49,0,0,0-1-2.09,4.65,4.65,0,0,0-2.84-.77Z"/><path class="cls-1" d="M149.9,116h5v14.25a4.52,4.52,0,0,0,1.1,3.19,3.69,3.69,0,0,0,2.89,1.21,4.16,4.16,0,0,0,3.19-1.22,4.82,4.82,0,0,0,1.14-3.43V116h4.93v15.08a9.46,9.46,0,0,1-1,4.13,7.16,7.16,0,0,1-3.17,3.27,10,10,0,0,1-4.78,1.14q-4.78,0-7-2.67a8.69,8.69,0,0,1-2.22-5.62Z"/><path class="cls-1" d="M172.67,116.19h3.57l8.22,14,7.95-14h3.06v23.3H191l.3-12.29-5,7.42-3,.24-5.3-7.92-.23,12.55h-4.51Z"/><path class="cls-1" d="M200.38,116.19h15.35v4.61H205.4v4.7H215v4.55H205.4v4.82l10.33.34v4.62l-15.35-.34Z"/><path class="cls-1" d="M234.84,116.22h4.92v23.3h-4.89l-10.65-15.08v15.08h-5v-23.3h5l10.68,15Z"/><path class="cls-1" d="M243.5,116.19h15.67v5h-5.34v18.35h-5V121.14H243.5Z"/><path class="cls-1" d="M261.9,127.83a11.47,11.47,0,0,1,3.41-8.53,11.17,11.17,0,0,1,8.1-3.36A12.09,12.09,0,0,1,282,136.38a11.39,11.39,0,0,1-8.45,3.39,11.2,11.2,0,0,1-8.38-3.37A11.73,11.73,0,0,1,261.9,127.83Zm11.74-7.24a5.79,5.79,0,0,0-4.72,2,7.94,7.94,0,0,0-1.79,5.36,7.43,7.43,0,0,0,1.83,5.15,5.92,5.92,0,0,0,4.61,2,6,6,0,0,0,4.73-2,7.66,7.66,0,0,0,1.8-5.31,7.56,7.56,0,0,0-1.76-5.22A6.2,6.2,0,0,0,273.64,120.59Z"/><path class="cls-1" d="M302.47,118.3l-3.13,3.43a8.56,8.56,0,0,0-3.54-1.46,1.92,1.92,0,0,0-1.44.63,2.11,2.11,0,0,0-.61,1.5c0,1.15,1.05,2.14,3.13,3a21.5,21.5,0,0,1,3.46,1.77,6.25,6.25,0,0,1,2,2.19,6.11,6.11,0,0,1,.79,3,6.88,6.88,0,0,1-2.42,5.22,8.22,8.22,0,0,1-5.73,2.22q-3.62,0-7.15-3.41l3.3-3.85q2.22,2.3,4.16,2.29A2.47,2.47,0,0,0,297,134a2.33,2.33,0,0,0,.84-1.69c0-1.21-1.29-2.28-3.85-3.21a12.94,12.94,0,0,1-3.12-1.5,5.33,5.33,0,0,1-1.56-2,6.34,6.34,0,0,1-.63-2.74,6.66,6.66,0,0,1,2-5,7.35,7.35,0,0,1,5.28-1.93A9.21,9.21,0,0,1,302.47,118.3Z"/><path class="cls-1" d="M312.73,129.57H323v4.58H312.73Z"/><path class="cls-1" d="M350.64,117.43v5.68a13.36,13.36,0,0,0-6.62-2.27,5.74,5.74,0,0,0-4.54,2,7.68,7.68,0,0,0-1.7,5.25,6.92,6.92,0,0,0,1.79,5,6.3,6.3,0,0,0,4.79,1.87,13.11,13.11,0,0,0,6.28-2.11v5.64a22.51,22.51,0,0,1-6.83,1.37,10.63,10.63,0,0,1-8-3.45,11.82,11.82,0,0,1-3.28-8.42,12,12,0,0,1,3.35-8.57,10.84,10.84,0,0,1,8.13-3.5A16.43,16.43,0,0,1,350.64,117.43Z"/><path class="cls-1" d="M356.13,116.05h4.95V130.3a4.52,4.52,0,0,0,1.1,3.19,3.73,3.73,0,0,0,2.89,1.21,4.14,4.14,0,0,0,3.19-1.22,4.82,4.82,0,0,0,1.14-3.43v-14h4.93v15.08a9.49,9.49,0,0,1-1,4.13,7.14,7.14,0,0,1-3.16,3.27,10,10,0,0,1-4.79,1.13q-4.78,0-7-2.67a8.7,8.7,0,0,1-2.21-5.61Z"/><path class="cls-1" d="M378.69,116.22h7.68a7.93,7.93,0,0,1,5.53,1.85,6.37,6.37,0,0,1,2,5,8.59,8.59,0,0,1-.93,3.73,6.47,6.47,0,0,1-3.44,3l6.52,9.71h-5.77l-6-9h-.57v9h-5Zm5.06,4.16v6.06h1.08q3.94,0,3.94-3.21a2.47,2.47,0,0,0-1-2.08,4.61,4.61,0,0,0-2.84-.77Z"/><path class="cls-1" d="M412.09,118.65,409,122.08a8.58,8.58,0,0,0-3.55-1.46,1.93,1.93,0,0,0-1.44.63,2.1,2.1,0,0,0-.6,1.5q0,1.73,3.12,3A21.9,21.9,0,0,1,410,127.5a6.33,6.33,0,0,1,2,2.19,6.07,6.07,0,0,1,.79,3,6.83,6.83,0,0,1-2.42,5.21,8.18,8.18,0,0,1-5.72,2.22c-2.41,0-4.8-1.14-7.15-3.41l3.3-3.85q2.22,2.29,4.15,2.29a2.54,2.54,0,0,0,1.74-.8,2.34,2.34,0,0,0,.83-1.69q0-1.83-3.85-3.22a12.4,12.4,0,0,1-3.12-1.5,5.45,5.45,0,0,1-1.55-2,6.38,6.38,0,0,1-.63-2.74,6.65,6.65,0,0,1,2-5,7.34,7.34,0,0,1,5.29-1.94A9.19,9.19,0,0,1,412.09,118.65Z"/><path class="cls-1" d="M416.45,128.17a11.45,11.45,0,0,1,3.42-8.53,11.14,11.14,0,0,1,8.1-3.36,12.09,12.09,0,0,1,8.6,20.44,11.37,11.37,0,0,1-8.44,3.39,11.26,11.26,0,0,1-8.39-3.37A11.79,11.79,0,0,1,416.45,128.17Zm11.75-7.24a5.73,5.73,0,0,0-4.72,2,7.88,7.88,0,0,0-1.8,5.36,7.4,7.4,0,0,0,1.83,5.14,5.94,5.94,0,0,0,4.62,2,6,6,0,0,0,4.72-2,7.67,7.67,0,0,0,1.81-5.31,7.5,7.5,0,0,0-1.77-5.22A6.15,6.15,0,0,0,428.2,120.93Z"/><path class="cls-1" d="M456.38,118.67l-3.13,3.43a8.56,8.56,0,0,0-3.54-1.46,1.92,1.92,0,0,0-1.44.63,2.1,2.1,0,0,0-.6,1.5q0,1.73,3.12,3a21.5,21.5,0,0,1,3.46,1.77,6.25,6.25,0,0,1,2,2.19,6,6,0,0,1,.79,3,6.88,6.88,0,0,1-2.42,5.22,8.22,8.22,0,0,1-5.73,2.22q-3.62,0-7.15-3.41l3.3-3.85q2.22,2.29,4.16,2.29a2.47,2.47,0,0,0,1.73-.81,2.33,2.33,0,0,0,.84-1.69q0-1.82-3.85-3.21a12.94,12.94,0,0,1-3.12-1.5,5.37,5.37,0,0,1-1.56-2,6.42,6.42,0,0,1-.63-2.75,6.62,6.62,0,0,1,2-5,7.31,7.31,0,0,1,5.28-1.94A9.21,9.21,0,0,1,456.38,118.67Z"/><path class="cls-1" d="M28.45,20.83a8.16,8.16,0,0,0,2-5.39V1.19C30.46,0,28-.48,27.5.57L26,3.94a1.34,1.34,0,0,1-1.46.77l-.67-.13a.88.88,0,0,0-1,1l.6,3a.73.73,0,0,1-1,.82h0A1.11,1.11,0,0,0,21,10.67l.58,3.44a.37.37,0,0,1-.58.37h0a.86.86,0,0,0-1.32.91l.44,1.88a1,1,0,0,1-1.23,1.16l-.09,0a.83.83,0,0,0-1,1.11l1.94,4.74-.89,53.88s.51,4.72-4.21,5.23-5-7.15-5-7.15L9.18,75a2,2,0,0,0-3.48-.4l0,.06a8,8,0,0,0-1.27,4.31v.51a27.72,27.72,0,0,0,1.66,9.36c1.26,3.49,2.73,8.46,2.43,11.92-.36,4.11-3.84,9.69-5.89,12.67a13.94,13.94,0,0,0-2.12,4.89l0,.08a17.54,17.54,0,0,0,1.09,11.21,12.25,12.25,0,0,0,4.51,5.36c6.13,3.83,11.36,5.24,16.73,5.24s21-2.11,21.54-16.85c.33-8.43-2.68-11.43-5-13.79a10,10,0,0,1-2.53-6.62,9,9,0,0,1,.55-3.3h0a48.12,48.12,0,0,1,3-6.76,14.74,14.74,0,0,0,1.89-6.17,5.75,5.75,0,0,0-1-4,2.34,2.34,0,0,0-3.51-.16L35.1,85.31A5.82,5.82,0,0,1,30,87.09c-1.81-.31-3.63-1.49-3.69-5-.13-7-1.79-56.81-1.79-56.81Z"/></g></g></svg>